<svg width="120" height="120" viewBox="0 0 120 120" fill="none" xmlns="http://www.w3.org/2000/svg">
<path fill-rule="evenodd" clip-rule="evenodd" d="M53.5558 15.1186C54.6767 14.87 55.849 15.0148 56.8758 15.5286L106.876 40.5286C107.706 40.9435 108.405 41.5815 108.893 42.371C109.381 43.1604 109.64 44.0703 109.641 44.9986V64.9986C109.641 66.3247 109.114 67.5964 108.176 68.5341C107.239 69.4718 105.967 69.9986 104.641 69.9986C103.776 69.9986 102.361 70.2986 101.311 71.0536C100.516 71.6286 99.6408 72.6286 99.6408 74.9986C99.6408 77.3686 100.516 78.3686 101.311 78.9436C102.361 79.6936 103.776 79.9986 104.641 79.9986C105.967 79.9986 107.239 80.5254 108.176 81.4631C109.114 82.4007 109.641 83.6725 109.641 84.9986V99.9986C109.641 101.325 109.114 102.596 108.176 103.534C107.239 104.472 105.967 104.999 104.641 104.999H22.1408C21.2124 104.998 20.3026 104.739 19.5131 104.251C18.7236 103.762 18.0857 103.064 17.6708 102.234C10.9708 88.8386 7.57075 70.0986 11.9908 53.1136C16.5058 35.7386 29.1608 20.5386 53.5558 15.1136V15.1186ZM39.6408 84.9986C38.3147 84.9986 37.0429 84.4718 36.1052 83.5341C35.1675 82.5964 34.6408 81.3247 34.6408 79.9986C34.6408 78.6725 35.1675 77.4007 36.1052 76.4631C37.0429 75.5254 38.3147 74.9986 39.6408 74.9986H39.6458C40.9718 74.9986 42.2436 75.5254 43.1813 76.4631C44.119 77.4007 44.6458 78.6725 44.6458 79.9986C44.6458 81.3247 44.119 82.5964 43.1813 83.5341C42.2436 84.4718 40.9718 84.9986 39.6458 84.9986H39.6408ZM59.6408 64.9986C59.6408 66.3247 60.1675 67.5964 61.1052 68.5341C62.0429 69.4718 63.3147 69.9986 64.6408 69.9986H64.6458C65.9718 69.9986 67.2436 69.4718 68.1813 68.5341C69.119 67.5964 69.6458 66.3247 69.6458 64.9986C69.6458 63.6725 69.119 62.4007 68.1813 61.4631C67.2436 60.5254 65.9718 59.9986 64.6458 59.9986H64.6408C63.3147 59.9986 62.0429 60.5254 61.1052 61.4631C60.1675 62.4007 59.6408 63.6725 59.6408 64.9986ZM74.6408 84.9986C73.3147 84.9986 72.0429 84.4718 71.1052 83.5341C70.1675 82.5964 69.6408 81.3247 69.6408 79.9986C69.6408 78.6725 70.1675 77.4007 71.1052 76.4631C72.0429 75.5254 73.3147 74.9986 74.6408 74.9986H74.6458C75.9718 74.9986 77.2436 75.5254 78.1813 76.4631C79.119 77.4007 79.6458 78.6725 79.6458 79.9986C79.6458 81.3247 79.119 82.5964 78.1813 83.5341C77.2436 84.4718 75.9718 84.9986 74.6458 84.9986H74.6408Z" fill="#F8F8F8"/>
</svg>
